<svg width="100" height="100" viewBox="0 0 262 126" fill="none" xmlns="http://www.w3.org/2000/svg">
<path d="M222.405 42.1061C162.205 41.1581 107.593 33.0724 54 5" stroke="#26A8FF" stroke-width="10" stroke-linecap="round"/>
<path d="M222.405 42.1061C162.205 41.1581 107.593 33.0724 54 5" stroke="#26A8FF" stroke-width="10" stroke-linecap="round"/>
<path d="M199.57 22.1259C202.067 24.6225 235.433 46.8058 234.298 47.8148C221.777 58.9444 195.799 67.0474 179.59 70.6493" stroke="#26A8FF" stroke-width="10" stroke-linecap="round"/>
<path d="M5.71378 63.8514C32.8073 65.173 58.6332 75.2933 85.0004 80.9773C117.297 87.9394 147.937 92.3946 180.937 92.3946C197.053 92.3946 212.799 89.5403 228.351 89.5403" stroke="#26A8FF" stroke-width="10" stroke-linecap="round"/>
<path d="M208.37 72.4144C221.82 83.4183 256.894 77.8797 256.894 100.323C256.894 114.375 237.72 116.253 228.351 120.938" stroke="#26A8FF" stroke-width="10" stroke-linecap="round"/>
</svg>
