<svg width="150" height="149" viewBox="0 0 370 149" fill="none" xmlns="http://www.w3.org/2000/svg">
<path d="M19 47C79.055 45.9269 133.536 36.7748 187 5" stroke="#26A8FF" stroke-width="10" stroke-linecap="round"/>
<path d="M19 47C79.055 45.9269 133.536 36.7748 187 5" stroke="#26A8FF" stroke-width="10" stroke-linecap="round"/>
<path d="M41.9234 24C39.4148 26.8813 5.88787 52.4826 7.02844 53.6471C19.6096 66.4915 45.7131 75.8431 62 80" stroke="#26A8FF" stroke-width="10" stroke-linecap="round"/>
<path d="M19 47C79.055 45.9269 133.536 36.7748 187 5" stroke="#26A8FF" stroke-width="10" stroke-linecap="round"/>
<path d="M19 47C79.055 45.9269 133.536 36.7748 187 5" stroke="#26A8FF" stroke-width="10" stroke-linecap="round"/>
<path d="M41.9234 24C39.4148 26.8813 5.88787 52.4826 7.02844 53.6471C19.6096 66.4915 45.7131 75.8431 62 80" stroke="#26A8FF" stroke-width="10" stroke-linecap="round"/>
<path d="M16 113.01C68.3498 117.218 118.403 130.461 171.301 122.504C236.83 112.647 299.882 84.7295 364 67" stroke="#26A8FF" stroke-width="10" stroke-linecap="round"/>
<path d="M8 110C8 125.79 11.5059 131.877 16 143" stroke="#26A8FF" stroke-width="10" stroke-linecap="round"/>
<path d="M5 103C20.3378 103 35.3891 97.3292 50 93" stroke="#26A8FF" stroke-width="10" stroke-linecap="round"/>
</svg>
