<svg width="110" height="85" viewBox="0 0 144 85" fill="none" xmlns="http://www.w3.org/2000/svg">
<path d="M45.8275 29.2263C40.4472 32.0334 35.5212 35.6601 29.922 38.0355C24.122 40.4962 17.6327 41.3695 11.9773 44.0715C10.0741 44.9808 8.53037 46.4623 6.75701 47.5789C4.17411 49.2051 7.21299 48.8052 9.28559 49.0878C18.1813 50.3009 29.6895 55.13 35.1015 62.5464C38.2135 66.811 41.9858 68.7308 45.8275 71.8042" stroke="#26A8FF" stroke-width="10" stroke-linecap="round"/>
<path d="M64.1801 5.00098C74.8953 23.9419 80.9331 43.8961 87.8345 64.3001C89.2682 68.5388 91.6722 76.4731 95.0124 79.1452" stroke="#26A8FF" stroke-width="10" stroke-linecap="round"/>
<path d="M102.353 29.2263C112.717 30.8244 123.393 31.585 133.512 34.2835C134.178 34.4611 138.267 34.6767 138.12 35.6293C137.909 37.0016 135.64 39.3923 134.98 40.2378C131.01 45.3222 126.795 50.1933 121.766 54.2673C120.912 54.9598 111.669 60.679 113.365 61.5268" stroke="#26A8FF" stroke-width="10" stroke-linecap="round"/>
</svg>
