<svg width="100" height="100" viewBox="0 0 112 128" fill="none" xmlns="http://www.w3.org/2000/svg">
<path d="M8 5C41.1966 5 73.7995 7 107 7" stroke="#26A8FF" stroke-width="10" stroke-linecap="round"/>
<path d="M8.02948 10.563C8.02948 30.1197 9.5405 50.146 5.33374 69.0765C2.65698 81.1219 16.7265 84.3838 24.5211 90.4839C36.7753 100.074 46.0138 111.025 56.7115 121.723C63.7835 128.795 78.3607 103.732 85.0961 99.5226C99.8919 90.2752 99.3677 91.5916 99.3677 73.9923C99.3677 52.8492 99.3677 31.7061 99.3677 10.563" stroke="#26A8FF" stroke-width="10" stroke-linecap="round"/>
<path d="M74.2767 24.4963C59.6351 24.4963 44.9935 24.4963 30.3519 24.4963C27.4154 24.4963 29.9508 41.4729 31.7791 45.5866C33.5617 49.5974 51.116 47.3309 54.9308 47.3309C60.8109 47.3309 70.5682 47.8415 75.8625 50.8195C78.1078 52.0825 66.7092 70.2492 65.5552 74.2883C60.9841 90.2873 46.4173 83.5688 34.3163 78.7284" stroke="#26A8FF" stroke-width="10" stroke-linecap="round"/>
</svg>
