<svg width="295" height="323" viewBox="0 0 295 323" fill="none" xmlns="http://www.w3.org/2000/svg">
<path d="M1 69.8187V1H253.863L294 69.8187H69.7346V154H92.5V87.5H192L218.5 127.5H131V154H192L218.5 197.5V253H92.5L131 218.5H180.5L174.75 197.5H131H73.5L69.7346 265H253.863L294 322H69.7346H1V69.8187Z" fill="#26A8FF"/>
<path d="M1 69.8187V1H253.863L294 69.8187H69.7346M1 69.8187V322C1 322 253.863 322 294 322L253.863 265H69.7346M1 69.8187H69.7346M69.7346 322C69.8167 298.547 69.9091 301.4 69.7346 265M69.7346 69.8187V154M69.7346 265L73.5 197.5M69.7346 154L73.5 197.5M69.7346 154H92.5M218.5 197.5L192 154H131M218.5 197.5V253H92.5L131 218.5H180.5L174.75 197.5M218.5 197.5H174.75M73.5 197.5H131H174.75M92.5 154V87.5H192L218.5 127.5H131V154M92.5 154H131" stroke="#26A8FF"/>
</svg>
