<svg version="1.1" id="Calque_2" xmlns="http://www.w3.org/2000/svg" xmlns:xlink="http://www.w3.org/1999/xlink" x="0px" y="0px" viewBox="87 16 100 50" style="enable-background:new 87 16 283.5 48.7;" xml:space="preserve">
  <g id="Layer_2">
   <path fill="rgb(96,165,250)" d="M151.9,35.4c-0.1,0-0.4,0.4-0.3-0.1c0-0.1,0-0.1-0.1-0.1c-0.1,0-0.1,0-0.2,0.1c-0.2,0.2-0.1,0.4,0,0.5
			c-0.2,0.3-0.3,0.7-0.6,0.9c-0.2,0.1-0.4,0.3-0.6,0.5l0,0c-0.1,0-0.2,0-0.3-0.1c0-0.1,0.1-0.2,0-0.2c-0.1-0.1-0.1,0-0.2,0l0,0l0,0
			c0,0.5-0.4,0.6-0.7,0.8l-0.1,0.1l0,0c-0.1,0.2-0.3,0.1-0.4,0.2c-0.1,0.1-0.1,0.1-0.2,0.2l0,0l0,0c0,0.1-0.1,0.1-0.1,0.2
			c-0.1,0.3,0,0.7-0.6,0.5c-0.1,0-0.2,0.1-0.2,0.2c-0.1,0-0.2,0.1-0.3,0.1l0,0l0,0l0,0c-0.2,0.2,0.1,0.4,0,0.6l0,0
			c0,0,0,0.1-0.1,0.1c-0.1,0.2-0.3,0.3-0.4,0.5c0.2,0,0.3-0.2,0.4-0.3c0.2,0,0.4-0.2,0.5-0.3c0.3-0.2,0.6-0.4,0.9-0.7l0,0
			c0.1,0,0.2-0.1,0.3-0.2l0,0l0,0c0.1-0.1,0.1-0.1,0.2-0.2c0.2-0.1,0.4-0.2,0.6-0.4l0,0l0,0l0,0c0.1-0.1,0.2-0.2,0.4-0.3
			c0.3-0.1,0.5-0.2,0.7-0.4c0.1,0,0.1-0.1,0.2-0.1l0,0l0,0c0.4-0.2,0.8-0.5,1.1-0.7c0.7-0.6,1.4-1.2,2.3-1.5
			c0.1-0.1,0.1-0.3,0.2-0.4c0.1,0,0.1,0,0.1-0.1c0.1-0.1,0.2-0.4,0.4-0.2c0.2,0,0.4-0.2,0.6-0.3l0,0c0.2-0.1,0.2-0.2,0.1-0.4
			c0.2-0.2,0.7,0,0.8-0.4c0-0.1,0.1,0.1,0.2,0.1c0.2,0,0.3-0.1,0.4-0.2l0,0l0,0c0.2,0,0-0.3,0.2-0.4c0.4-0.1,0.6-0.5,1-0.3
			c0,0,0.1,0,0.2-0.1c0.1-0.3,0.5-0.3,0.7-0.4c0.2-0.1,0.2-0.3,0.1-0.5c-0.1-0.2-0.2,0-0.3,0.1c-0.2,0.1-0.4,0.3-0.5,0.2
			c-0.3-0.1-0.4,0-0.4,0.3c0,0.1,0,0.1-0.1,0.1c-0.1,0-0.1-0.1-0.1-0.2c0-0.3,0-0.5,0.2-0.7c0,0.1-0.1,0.3,0.1,0.3
			c0.1,0,0.3-0.2,0.3-0.2c0-0.1-0.1-0.4-0.2-0.4c-0.2-0.1-0.3-0.1-0.1-0.3c0-0.1,0.1-0.1,0.1-0.2l0,0l0,0c0.1-0.1,0.1-0.2,0.1-0.3
			c0.1-0.1,0.2-0.1,0.3-0.1c0.1,0.1-0.1,0.2-0.1,0.4c0.2,0,0.3-0.1,0.4-0.2c0.2-0.2,0.4-0.4,0.7-0.6c-0.1,0-0.1,0-0.2,0
			c0,0,0.1,0,0.2,0c0.1,0,0.2,0,0.2-0.1l0.1-0.1c0.3-0.2,0.6-0.4,0.8-0.6c0.1-0.1,0.3-0.3,0.5-0.3h0.1c-0.2-0.1-0.2-0.2-0.3-0.3
			c0,0,0,0-0.1,0l0,0c0,0,0,0,0.1,0c0-0.1,0.1-0.1,0.1-0.2c0.1-0.1,0.2-0.2,0.3-0.1c0.2,0.1,0.1,0.2,0,0.3c-0.1,0.1-0.1,0.2,0,0.3
			l0,0c0,0.1-0.1,0.1-0.1,0.2l0,0l0,0l0,0l0,0c-0.1,0.1-0.2,0.1-0.3,0.2c-0.1,0.1-0.2,0.1-0.2,0.2c0.1,0.2,0.2,0,0.3,0
			s0.2-0.1,0.3-0.2s0.3-0.1,0.4-0.2l0,0c0.1-0.1,0.4-0.2,0.4-0.5c0-0.1,0-0.1,0-0.2v-0.1l0,0l0,0c0.1-0.1,0.2-0.2,0.3-0.2
			c0.4-0.1,0.7-0.3,1-0.5c0.2,0,0.3,0,0.3-0.2l0,0c0.4,0,0.8-0.2,1-0.4c0.2-0.2,0.2-0.4,0.5-0.2c0,0,0.1,0,0.1-0.1l0,0l0.1-0.1
			c0.1-0.2,0.4,0.1,0.4-0.2l0,0l0,0c0-0.1,0.1-0.2,0.2-0.2c0.3,0.1,0.4-0.1,0.5-0.3h0.1c0.2,0,0.7-0.3,0.8-0.5l0,0l0,0
			c0.1,0,0.1,0.2,0.3,0.1c0-0.1-0.2-0.3,0-0.4c0.1,0,0.2,0,0.2-0.1c0.9-0.1,1.1-0.1,1.3-0.2c0.1,0,0.1-0.1,0.1-0.2
			c0-0.1-0.1,0-0.2,0c-0.2,0.1-0.3,0.2-0.5,0.3c-0.1,0-0.1,0-0.2,0l0,0l0,0c-0.1,0.1-0.2,0.1-0.3,0.2c-0.2,0.2-0.3,0.1-0.4-0.1
			c0.1-0.1,0.2-0.1,0.2-0.2c0.5-0.1,0.8-0.5,1.3-0.6c0.3-0.1,0.5-0.3,0.7-0.4l0,0c0.2-0.1,0.5-0.1,0.5-0.4c0-0.1,0.1-0.1,0.2-0.1
			l0,0l0,0l0,0c0,0.1,0.1,0.1,0.2,0c0.3-0.3,0.6-0.4,0.8-0.6l0,0l0,0c0.1,0,0.2-0.1,0.2-0.1c0.4-0.1,0.6-0.2,0.6-0.7
			c-0.3,0.1-0.5,0.2-0.8,0.3c-0.1,0-0.1,0-0.2-0.1l0,0l0,0l0,0h0.1c0.1,0,0.3,0,0.3-0.2c0-0.1,0-0.2-0.1-0.2
			c-0.2-0.1-0.2,0.1-0.2,0.2c-0.2,0.3-0.1-0.2-0.2-0.1l0,0c-0.1,0-0.2,0.1-0.2,0c0.1-0.1,0.3-0.1,0.3-0.3c0.2,0,0.4-0.2,0.5-0.3
			c0.1,0,0.3,0,0.4-0.1c0.1-0.1,0.2-0.2,0.4-0.2l0,0l0,0c0.9-0.4,1.8-0.5,2.6-1.2c-0.7,0.3-1.5,0.4-2.2,0.8l-0.1-0.1l0,0l0,0
			l-0.1-0.1l0,0c-0.2-0.3-0.5-0.2-0.7-0.1c-0.2,0.2-0.5,0-0.7,0.1l0,0c-0.1,0-0.2,0.1-0.3,0c-0.1-0.1,0.1-0.1,0.1-0.2l0,0
			c0.3-0.4,0.8-0.5,1.3-0.7c-0.4-0.1-0.8,0-1.1,0.1c-0.1,0-0.2,0-0.2-0.1c0-0.3-0.1-0.2-0.2-0.1c-0.2,0.1-0.3,0.2-0.4,0.3l0,0l0,0
			c-0.3,0-0.5,0.3-0.8,0.1l0,0c-0.2,0.1-0.3,0.3-0.5,0.3c-0.2-0.1-0.4,0.1-0.6,0.2l0,0l0,0l0,0l0,0l0,0l0,0c0.1-0.1,0-0.3,0.2-0.4
			l0,0l0,0c0.5-0.3,1.1-0.5,1.6-0.6c0.4-0.1,0.8-0.3,1.2-0.5c0.3-0.1,0.6-0.1,0.9-0.3c-0.2-0.2-0.3-0.2-0.5-0.1
			c-1.1,0.4-2.2,0.7-3.3,0.8c-0.2,0-0.3,0.1-0.1,0.3c0.1,0.1,0.1,0.1,0,0.2l0,0l0,0c-0.5-0.2-0.6-0.1-0.5,0.4
			c-0.2,0.1-0.4,0.1-0.6,0.2c0-0.1,0.1-0.2,0.1-0.2c0.4-0.1,0.2-0.3,0.2-0.6c-0.2,0-0.2,0.2-0.3,0.3c-0.1,0.1-0.2,0.3-0.4,0.3
			c0-0.4,0.2-0.6,0.5-0.8c0.3-0.1,0.3-0.3,0.1-0.5c-0.2-0.1-0.4-0.2-0.6-0.3c-0.3-0.2-0.5-0.2-0.7,0.2c-0.1,0.2-0.3,0.2-0.4,0.2l0,0
			c-0.2,0-0.2,0.1-0.3,0.2c-0.1,0.2,0.1,0.3,0.2,0.4l0,0c-0.2,0.4-0.6,0.5-1,0.6c-0.3,0,0-0.4-0.3-0.4c0-0.1,0-0.2,0.2-0.3
			c0.2-0.1,0.3-0.2,0.2-0.3s-0.2,0-0.3,0h-0.1h-0.1c-0.1-0.1,0-0.1,0.1-0.1c0.2-0.1,0.4-0.3,0.6-0.4c0.1,0,0.1-0.1,0.2-0.1
			c0.2,0,0.3-0.2,0.4-0.4l0,0l0,0c0.1,0,0.2-0.1,0.3-0.2l0,0c0.1-0.1,0.3-0.2,0.4-0.3l0,0c0.3-0.1,0.7-0.2,0.8-0.5l0,0l0,0
			c0.2-0.1,0.4-0.3,0.7-0.1c0.1,0.1,0.2,0,0.3,0c0.4-0.1,0-0.4,0.1-0.5c0.1-0.1,0.2-0.1,0.2-0.3c-0.5,0.1-0.9,0.3-1.4,0.4l0,0
			c-0.1,0-0.2,0-0.3,0.1l0,0l0,0c-0.1,0-0.1,0.1-0.2,0.2l0,0l0,0c-0.1,0-0.1,0.1-0.2,0.1c-0.2-0.1-0.4,0-0.6,0.1l0,0l0,0l0,0l0,0
			c-0.2-0.1-0.4-0.1-0.4,0.1c-0.2,0.1-0.3,0.2-0.5,0.3l0,0l0,0c-0.1,0.1-0.1,0.2-0.2,0.1c-0.1,0-0.2,0-0.3,0.1l0,0
			c-0.2-0.2-0.3,0-0.4,0.1c-0.2,0-0.4,0.2-0.7,0.2c-0.3,0.1-0.5,0.3-0.7,0.6l0,0l0,0c-0.2,0-0.1-0.3-0.3-0.3
			c-0.1,0.2-0.2,0.3-0.3,0.5c-0.1,0-0.2,0.1-0.2-0.1c0-0.3-0.2-0.1-0.2-0.1c-0.1,0-0.2,0.1-0.2,0.2s-0.1,0.3-0.2,0.3
			c0-0.4,0-0.4-0.2-0.3c0,0.2-0.1,0.1-0.2,0.2l0,0c0-0.1-0.1-0.1-0.2,0c-0.1,0.1-0.3,0.2-0.4,0.1c-0.1-0.1-0.2,0-0.2,0.1
			s0,0.2,0,0.2c-0.3,0-0.2-0.3-0.3-0.4c0-0.1,0.2-0.3,0-0.3c-0.2-0.1-0.1,0.2-0.2,0.3c0,0-0.1,0.1,0,0.1c0.2,0.4-0.1,0.2-0.3,0.2
			c-0.1-0.1,0-0.2-0.2-0.2c-0.1,0-0.1,0.2,0,0.2c0.1,0.3-0.1,0.1-0.2,0.1c0,0-0.1,0-0.1,0.1c0,0.3-0.2,0.2-0.3,0.2
			c-0.1-0.1-0.1-0.1-0.2-0.1c-0.1,0-0.2,0.1-0.2,0.2c-0.1,0.2-0.1,0-0.2,0l0,0c-0.1-0.1-0.1-0.1,0-0.2c0.1,0,0.2-0.1,0.3-0.1
			s0.1-0.1,0.1-0.1c0-0.1,0-0.1-0.1-0.2c-0.1-0.1-0.1,0-0.2,0.1c-0.1,0.1-0.1,0.1-0.2,0.2c-0.1,0-0.3,0-0.3,0.2l0,0l0,0
			c-0.2,0.2,0.1,0.4-0.1,0.6c-0.1,0.1-0.2,0.1-0.3,0c0-0.2,0.2-0.4,0.1-0.4c-0.2-0.1-0.3,0.1-0.4,0.2l0,0c0.1,0.2,0.3-0.1,0.3,0.1
			c0,0.1,0,0.3-0.2,0.3c0,0,0,0,0,0.1l0,0c-0.1,0-0.2,0-0.3,0s-0.1,0-0.1-0.1c0.1-0.1,0.2-0.1,0.3-0.2c0-0.1-0.1-0.1-0.1-0.1
			c-0.2-0.1-0.2,0.1-0.3,0.2c-0.1,0.1-0.1,0.2-0.2,0.2l0,0c-0.1,0-0.2,0.1-0.2,0.2c0.1,0.1,0.3-0.1,0.3,0.1c0,0.1-0.1,0.1-0.1,0.2
			c-0.1,0.2-0.1,0.3,0.1,0.2c0.1,0,0.2-0.1,0.3-0.2v-0.1c0.1,0,0.1,0,0.2,0h0.1c0.2,0,0.3,0,0.5-0.1l0,0l0.1,0.1
			c-0.5,0.1-1,0.3-1.4,0.4c-0.4,0-0.3,0.1-0.3,0.3c-0.1,0-0.1,0-0.2,0l0,0c0,0,0,0,0.1-0.1c0-0.1,0.1-0.3-0.1-0.4
			c0-0.1-0.1-0.1-0.1-0.2c-0.1,0-0.1,0-0.2,0l0,0l0,0l-0.1-0.1c0-0.1-0.1-0.1-0.1-0.1l0,0l0,0c-0.2,0-0.4-0.1-0.6-0.2
			c0.1-0.2,0-0.2-0.1-0.2v0.1c0.1,0.1,0.2,0.3,0.1,0.5c-0.1,0.1,0,0.3,0.2,0.2c0.3-0.2,0.3,0,0.3,0.2l0,0l0,0
			c-0.3,0.3-0.6,0.1-0.8-0.2c-0.1,0.1,0,0.2,0,0.3l0,0l0,0c0,0.1,0,0.2-0.1,0.2l0,0l0,0c0,0,0,0-0.1,0c0.1-0.2-0.1-0.2-0.2-0.3l0,0
			l0,0c0-0.1,0-0.1-0.1-0.2c0-0.1,0.1-0.1,0.1-0.3c-0.1,0-0.2,0-0.3,0.1l0,0c-0.4,0.1-0.5,0.5-0.6,0.8c0,0.1-0.1,0.3-0.1,0.4h-0.1
			c-0.1,0-0.1,0-0.2-0.1c-0.2-0.2-0.3-0.1-0.4,0.1l0,0l0,0c0,0,0,0.1-0.1,0.1c-0.2,0.1,0,0.1,0,0.2c-0.2,0.1-0.4,0.2-0.6,0.3l0,0
			l0,0c0.1-0.2-0.2-0.1-0.2-0.2s0.1-0.2-0.1-0.3c-0.2,0-0.3,0-0.4,0.2l0,0c-0.3,0.1-0.6,0.1-0.7,0.4c-0.1,0-0.2-0.1-0.3,0.1l0,0
			c0,0.1,0,0.1,0,0.2c-0.1,0.1-0.2,0.1-0.3,0.2c0,0.1,0,0.1,0,0.2l0,0l0,0c-0.1,0-0.2,0-0.3,0c0.1,0,0.1-0.1,0.2-0.2l0,0
			c0-0.1,0-0.1-0.1-0.1c-0.2,0-0.8,0.4-0.9,0.6c-0.2,0-0.3,0-0.5,0c-0.1,0-0.2,0-0.3,0.1c0,0.4-0.2,0.3-0.5,0.2
			c-0.3,0-0.4,0.2-0.6,0.4l-0.1,0.1l0,0l0,0c-0.1,0-0.3,0-0.4,0.1c-0.5,0.3-1,0.6-1.5,1l0,0l0,0c0,0,0,0-0.1,0
			c-0.5,0.3-1.1,0.6-1.6,0.9l0,0l0,0c-0.1,0-0.1,0-0.1,0.1c-0.1,0.1-0.2,0.2-0.4,0.3l0,0l0,0c-0.1,0-0.2,0.1-0.3,0.2
			c-0.2,0.1-0.3,0.1-0.5,0.2l0,0l0,0c-0.1,0-0.1,0.1-0.1,0.1c0,0.1,0,0.1-0.1,0.1c0-0.1,0-0.1,0.1-0.1c-0.3,0.2-0.6,0.4-0.9,0.6
			c-0.4,0.2-0.8,0.5-1.2,0.8c-0.3,0.2-0.6,0.6-1.1,0.4c-0.1,0,0,0.1,0,0.2l0,0l0,0c0,0,0,0-0.1,0.1c-0.2,0.1-0.4,0.3-0.5,0.4
			c-0.1,0.1-0.3,0-0.3,0.2l0,0l0,0c-0.2,0-0.3,0.1-0.4,0.2c-0.1,0-0.1-0.2-0.2-0.2c-0.1,0,0,0.1,0,0.2l0,0l0,0v0.1l0,0l0,0
			c-0.3,0-0.3,0.4-0.5,0.5l0,0l0,0l0,0c-0.1,0-0.2,0-0.2,0.1c0,0,0,0,0,0.1l0,0c0,0,0,0,0-0.1c-0.3-0.1-0.5,0-0.6,0.3
			c-0.1,0.1-0.1,0.2-0.3,0.2c-0.1,0,0,0.1,0,0.1l0,0l0,0c-0.2,0-0.2,0.2-0.4,0.3c-0.3,0-0.3,0.3-0.5,0.4l0,0l0,0
			c-0.1,0-0.2,0-0.2,0.1c-0.1,0.1-0.3-0.1-0.3,0.1l0,0l0,0l0,0l0,0l0,0c-0.2,0.1-0.3,0.5-0.7,0.5c-0.1,0.4-0.4,0.4-0.7,0.5l-0.1,0.1
			v0.1l0,0c0,0,0,0,0-0.1c-0.1,0.1-0.4,0.2-0.3,0.4l0,0l0,0c-0.2,0.1-0.3,0.2-0.4,0.5l0,0l0,0l-0.1,0.1c-0.4-0.2-0.4,0.1-0.6,0.3
			l0,0l0,0c0,0,0,0.1-0.1,0.1c0,0.1-0.3,0.1-0.2,0.2l0,0c-0.1,0.1-0.3,0.1-0.2,0.3l0,0l0,0c-0.1,0-0.2-0.2-0.2,0l0,0l0,0
			c-0.3,0.1-0.5,0.3-0.7,0.5l0,0l0,0c-0.1,0.1-0.2,0.1-0.3,0.2l0,0l0,0c-0.3,0-0.5,0.2-0.4,0.6l0,0l0,0l-0.1,0.1c-0.1,0-0.1,0-0.2,0
			l0,0l0,0c-0.2,0-0.1,0.3-0.3,0.3c-0.1,0-0.1-0.2-0.2-0.2c-0.1,0-0.1,0.1,0,0.2l0,0l0,0c-0.3,0.2-0.5,0.5-0.7,0.8l0,0l0,0
			c-0.1,0.1-0.3,0.1-0.3,0.3l0,0l0,0c-0.1,0-0.3,0-0.4,0.1c-0.1,0.1-0.2,0.2-0.3,0.2l0,0l0,0c-0.2,0.1-0.2,0.2-0.1,0.4l0,0l0,0
			c0,0,0,0-0.1,0.1c-0.1,0-0.2,0.1-0.3,0.1l0,0c-0.3,0.2-0.3,0.5-0.2,0.8c-0.1,0.1-0.1,0.1-0.2,0.1c-0.2-0.3,0-0.7-0.2-1
			c0-0.1,0-0.1,0-0.2l0,0l0,0c-0.1-0.1-0.1-0.3-0.2-0.4c0-0.2,0-0.5-0.2-0.7l0,0c-0.1-0.4-0.5-0.7-0.5-1.2l0,0c0-0.1,0-0.2,0.1-0.3
			c0-0.3-0.2-0.5-0.4-0.5l0,0c0,0,0,0-0.1-0.1c0,0,0,0,0-0.1c0.2-0.1,0.3-0.4,0.1-0.5c-0.2-0.3-0.3-0.4-0.1-0.6c0-0.1,0.1-0.2,0-0.2
			c-0.1-0.1,0-0.3,0-0.4c0-0.3-0.1-0.6-0.1-0.8s-0.1-0.2-0.2-0.2l-0.1-0.1c0-0.1,0.2-0.2,0-0.4c-0.1-0.2-0.1-0.5-0.4-0.6l0,0l0,0
			c0.2-0.3-0.1-0.5-0.3-0.7c0-0.1-0.1-0.2-0.1-0.3l0,0l0,0c0-0.2,0-0.5-0.3-0.5c0-0.2-0.2-0.3,0-0.5c0.1-0.1-0.1-0.1-0.2-0.1l0,0
			c-0.1,0.2-0.2,0.4,0,0.6c-0.2,0.3,0,0.5,0,0.8c0.1,0.1,0,0.3,0.1,0.4c0,0,0,0,0.1,0l0,0c0,0,0,0-0.1,0c0,0.1,0,0.2-0.2,0.2l0,0
			c0-0.2-0.1-0.4-0.3-0.5l0,0c-0.1-0.1-0.2-0.2-0.4-0.2c0,0-0.1,0-0.1-0.1s0-0.1,0.1-0.1s0.2,0,0.1-0.1c-0.1-0.1-0.1-0.3-0.3-0.4
			l0,0l0,0c-0.1,0-0.3-0.1-0.2-0.2c0-0.2-0.1-0.3-0.2-0.4c-0.1-0.2-0.3-0.2-0.3,0.1l-0.1,0.1v-0.1l0,0l0,0c-0.1-0.2-0.2-0.5-0.4-0.6
			c-0.6-0.6-0.9-1.4-1.7-1.8l0,0l0,0c0-0.1-0.1-0.3-0.3-0.3c0,0,0,0-0.1,0c-0.3-0.3-0.6-0.6-1.1-0.7c-0.3-0.1-0.5-0.2-0.7-0.4l0,0
			l0,0c-0.4-0.1-0.8-0.3-1.2-0.3c-0.3-0.1-0.3-0.4-0.6-0.5c-0.1-0.1-0.2-0.2-0.7-0.2l0,0c-0.1,0-0.1,0-0.2,0
			c0.5-0.2,0.2-0.2-0.1-0.2l0,0c-0.1,0-0.1,0-0.2,0c-0.3,0-0.5,0-0.8,0l0,0h-0.1c-0.1-0.1-0.1-0.2-0.2-0.1l0,0l0,0
			c-0.3,0-0.6-0.1-0.9,0c-0.1,0-0.2,0-0.3,0l0,0l0,0c-0.3-0.1-0.5,0.2-0.7,0.1l0,0l0,0c-0.2,0-0.4,0-0.6,0l0,0c-0.1,0-0.2,0-0.2,0
			c-0.1,0-0.2,0-0.3,0.1l0,0l0,0c-0.2,0.1-0.2,0.2,0,0.2c0.2,0,0.4,0,0.6-0.1l0,0l0,0c0.1,0,0.2,0.1,0.3,0.1c0.5-0.1,1-0.1,1.5-0.2
			c0.1,0,0.1-0.1,0.2,0c0.3,0.2,0.7,0.2,1,0.2c0.1,0,0.1,0,0.2,0.1l0,0c-0.1,0.1-0.2,0-0.3,0.1c-1.1,0-2.1,0.1-3.1,0.3
			c-1.1,0.2-2.2,0.3-3.2,0.9c-0.1-0.1,0-0.2-0.2-0.2c-0.1,0-0.2,0-0.1,0.2l0,0c0,0.1-0.1,0.2-0.2,0.1s-0.3-0.2,0-0.4l0,0l0,0
			c0.1-0.1,0.1-0.2,0.1-0.3l-0.1-0.1l0,0l0,0c-0.2-0.1-0.4-0.1-0.5,0.2c-0.2,0.1-0.5,0.1-0.7,0c0,0.2-0.2,0.4,0.1,0.5
			c0.1,0.1,0.1,0.4,0.4,0.2l0,0c0.2-0.2,0.4-0.2,0.6,0c-0.4,0.2-0.8,0.4-1.2,0.5c-0.3,0.1-0.6,0.2-0.8,0.5l0,0
			c-0.3,0.2-0.6,0.4-0.8,0.6l0,0l0,0c-0.3,0.1-0.6,0-0.8,0.2l0,0c-0.2,0-0.2,0.1-0.3,0.2l0,0c-0.4,0-0.6,0.3-0.9,0.4
			c-0.1,0.1-0.4,0.1-0.4,0.3l0,0l0,0c-0.2,0.1-0.4,0.2-0.5,0.3c-0.4,0.3-1,0.6-1.4,0.9c-0.5,0.5-1.1,0.8-1.7,1.3
			c-0.7,0.6-1.5,0.9-2.1,1.5c-0.3,0.2-0.6,0.4-0.8,0.7c-0.2,0.3-0.5,0.2-0.7,0.5c-0.1,0.1-0.2,0.2-0.3,0.4c-0.5,0-0.6,0.4-0.8,0.7
			l0,0l0,0c-0.1,0.1-0.1,0.1-0.2,0.2L91.8,36c-0.2,0-0.3,0.2-0.5,0.1c-0.2,0-0.4,0.1-0.6,0.3l0,0l0,0c-0.4,0.1-0.5,0.5-0.5,0.8l0,0
			l0,0c-0.1,0.3-0.2,0.5-0.4,0.7c-0.2-0.1-0.4,0-0.7,0.2c0,0.3-0.1,0.5-0.2,0.7c0.1,0,0.1,0,0.1-0.1c0,0.1,0,0.1-0.1,0.1
			c-0.3,0.2-0.4,0.6-0.6,0.9c-0.1,0.2-0.2,0.5-0.4,0.6c-0.1,0.1-0.2,0.2-0.2,0.4c0,0.1,0,0.2,0,0.3c-0.1,0.1-0.2,0.1-0.3,0.2
			c0,0,0,0-0.1,0c-0.3-0.1-0.2,0.2-0.2,0.3l0,0c-0.2,0.2,0,0.3,0.2,0.3c0.1,0,0.2-0.1,0.3,0l0,0c-0.2,0.1-0.1,0.3-0.2,0.4
			c0,0-0.1,0.1,0,0.2c0.1,0,0.1,0,0.2-0.1c0.1-0.2,0.2-0.1,0.3,0c0.1,0.1,0.2,0.1,0.3,0.2l0,0c0.3,0,0.3,0.4,0.7,0.4
			c0.2,0,0.2,0,0.1,0.2c0,0.1,0.1,0.1,0.1,0.1c0.4-0.3,0.5,0,0.6,0.3c0,0,0.1,0.1,0.2,0.1c0.2,0.1,0.3,0.3,0.5,0.3s0.5,0,0.7,0l0,0
			c0.8,0.4,1.6,0.4,2.5,0.5c0.1,0,0.3,0,0.3-0.2c0.2,0,0.4-0.2,0.6-0.1c0.1,0,0.3,0,0.3-0.1c0.1-0.2,0.2-0.2,0.3-0.2
			c0.6,0,1.2-0.2,1.8-0.5c0.3,0,0.5-0.1,0.8-0.3c0.1,0,0.1,0,0.2-0.1l0,0c0.1,0,0.2-0.1,0.3-0.1l0,0l0,0c0.5-0.2,1-0.3,1.5-0.7
			c0.4-0.3,0.9-0.5,1.3-0.7c0.4-0.1,0.7-0.4,1-0.6c0.4-0.3,0.7-0.7,1.3-0.7c0.2,0,0.4-0.1,0.5-0.2c0.5-0.4,1-0.5,1.5-0.8
			c0.4-0.2,0.9-0.3,1.2-0.7c0.3-0.3,0.6-0.5,1-0.5c0.4,0,0.7-0.2,0.9-0.4l0,0l0,0c0.3,0,0.5-0.1,0.8-0.1c0.1-0.2,0.3-0.1,0.5-0.2
			c0.2,0,0.4,0,0.5-0.1c0.5-0.1,1-0.3,1.6-0.4h0.1c0.5,0,0.9,0,1.4-0.2c0.3-0.1,0.6,0.1,0.6,0.4s-0.2,0.6-0.2,0.9
			c-0.1,0-0.1,0.1-0.1,0.1l0,0l0,0c0,0.1-0.1,0.2-0.2,0.3c0,0,0,0,0.1,0.1l0,0c0,0,0-0.1-0.1-0.1c-0.1,0.3-0.2,0.7-0.4,1
			c-0.1,0.2-0.3,0.4-0.2,0.6l0,0l0,0l0,0c-0.3,0.2-0.2,0.6-0.4,0.9c0,0.3-0.3,0.5-0.1,0.8l0,0l0,0c0,0.1-0.1,0.1-0.1,0.2l0,0l0,0
			c-0.2,0.1-0.2,0.3-0.3,0.5c-0.2,0.3-0.3,0.6-0.4,0.9c-0.1,0.4-0.3,0.9-0.5,1.2c-0.2,0.4-0.3,0.8-0.3,1.2l0,0l0,0l0,0l0,0
			c-0.1,0-0.2,0-0.2,0.1c-0.5,1.2-1.1,2.4-1.6,3.6c-0.1,0.3-0.2,0.6-0.2,0.9l0,0l0,0c0,0.1,0,0.1-0.1,0.2l0,0l0,0
			c-0.1,0.2-0.2,0.4-0.3,0.6c0,0.1-0.1,0.2,0.1,0.2l0,0l0,0c0.1,0.1,0,0.2,0.1,0.3c0.1,0.3-0.3,0.1-0.2,0.3
			c-0.1,0.1-0.1,0.2-0.1,0.3l0,0l0,0c-0.1,0.3-0.2,0.6-0.2,0.9c0,0.1,0,0.2-0.1,0.3c0.1,0.4,0.3,0.5,0.6,0.2c0,0.1,0,0.2,0,0.3l0,0
			l0,0c0,0.2,0,0.4-0.3,0.2h-0.1c0,0-0.1,0-0.1-0.1c0,0,0-0.1-0.1-0.1c-0.2,0.1-0.5,0.1-0.5,0.4c0,0.2,0.2,0.3,0.2,0.4l0,0l0,0v0.1
			c-0.5,0.6-0.5,0.6-0.5,1.1l0,0l0,0c-0.1,0.2-0.1,0.3,0,0.5l0,0l0,0c0,0.1-0.1,0.2,0,0.4c0,0.2,0,0.3-0.2,0.4
			c0-0.1-0.1-0.2-0.2-0.1c-0.1,0.1,0,0.1,0,0.2l0,0l0,0c0,0.1,0,0.2,0,0.4c-0.3,0.3-0.4,0.6-0.4,1c-0.1,0.2-0.1,0.3,0,0.5l0,0l0,0
			c0,0.1-0.1,0.3-0.1,0.4l0,0c0,0.1,0,0.2,0,0.3c-0.4,0.2,0.1,0.3,0.1,0.5l0,0l0,0c-0.1,0.1-0.2,0.3,0,0.4c0.1,0.1,0.2,0.3,0.2,0.5
			c0,0.3,0,0.5,0.2,0.8c0.2,0.3,0.2,0.6,0.6,0.7c0.2,0.2-0.3,0.4,0,0.6c0-0.1,0.1-0.2,0.1-0.3c0,0.1,0.2,0.2,0.1,0.3
			c-0.2,0.3,0.1,0.3,0.2,0.4c0,0,0,0,0.1,0c0.2,0.1,0.4,0.4,0.7,0.2c0,0,0.1,0,0.1,0.1c0.3,0.1,0.5,0.2,0.8,0.2
			c0.1,0,0.2,0.1,0.2-0.1c0-0.4,0.2-0.2,0.4-0.1c0.2,0,0.2,0.4,0.4,0.2l0,0l0,0l0.1-0.1c0,0,0.1,0,0.1-0.1l0,0l0,0l0,0
			c0.2,0.1,0.3,0.2,0.5,0.3l0,0l0,0c0.2,0,0.4-0.1,0.6,0c0.1,0.1,0.2,0.1,0.2,0.2c0,0.1-0.4-0.1-0.2,0.2c0.1,0.1,0.3,0,0.4,0
			c0,0,0,0,0.1-0.1s0.2-0.1,0.3,0l0,0c0.1-0.3-0.2-0.2-0.3-0.2c0-0.1-0.1-0.2-0.2-0.2l0,0l0,0V64c0.2,0,0.5-0.1,0.7-0.1l0,0
			c0.5,0,0.9,0.1,1.3,0l0,0c-0.1,0.1-0.3,0.1-0.2,0.2l0,0l0,0l0,0c-0.3,0.1-0.6-0.1-0.9,0c-0.1,0.2-0.3,0.3-0.1,0.5
			c0.3,0.2,0.5-0.2,0.7-0.2c0.1,0,0.2,0.1,0.3-0.1c0.4,0,0.7-0.1,1-0.3c0.4,0,0.8-0.2,1.2-0.2c0.1,0,0.2-0.1,0.2,0.1
			c0,0.2,0,0.3,0.2,0.4c0.2,0.1,0.3-0.1,0.4-0.2c0.3,0.2,0.3-0.1,0.5-0.2c0.2-0.1,0.3-0.2,0.5-0.2c0.2,0.3,0.4,0.1,0.6,0
			c0-0.2-0.4-0.1-0.3-0.4c0,0,0,0-0.1,0l0,0l0,0c0.1,0.1,0.2,0.2,0.4,0c0,0,0-0.1,0.1-0.1l0,0l0,0c0.2-0.1,0.3-0.1,0.5-0.1V63
			c0,0,0,0,0,0.1l0,0c0.2,0.1,0.2-0.1,0.2-0.2c0,0,0,0,0-0.1l0,0l0,0v-0.1l0,0l0,0l0,0c0.1,0,0.3,0.1,0.4,0l0,0l0.1-0.1l0,0l0,0
			c0.1,0.1,0.3,0,0.5,0.1c0.1-0.1,0.3,0.2,0.4-0.1c0.5,0.2,0.4,0,0.4-0.1c0.1-0.1,0.2-0.1,0.3-0.2c0.1-0.1,0.3-0.1,0.4-0.2l0,0l0,0
			c0.1,0,0.2,0,0.3-0.1c0.2,0,0.3-0.2,0.5-0.3c0.1,0,0.2,0,0.3-0.1c0.1,0,0.2-0.1,0.3-0.2c0.1-0.3,0.4-0.2,0.6-0.4l0,0l0,0l0,0l0,0
			c0,0,0,0,0.1-0.1l0,0l0,0l0.1-0.1c0.3-0.2,0.1-0.2,0-0.3c0.1-0.1,0.3-0.1,0.4-0.3c0,0,0,0,0.1-0.1l0,0l0,0c0.4-0.1,0.6-0.5,1-0.7
			l0,0l0,0c0.4-0.1,0.6-0.5,0.9-0.8c0.2-0.1,0.4-0.3,0.6-0.4c0.1-0.2,0.5-0.2,0.3-0.6l0,0c0,0,0,0,0-0.1c0.2-0.2,0.5-0.3,0.7-0.5
			l0,0l0,0l0,0l0,0c0.2,0,0.3,0,0.1-0.2v-0.1c0.2-0.1,0.4-0.2,0.5-0.4l0,0l0,0c0.1,0,0.1,0,0.2-0.1l0,0l0,0c0.2-0.1,0.4-0.2,0.5-0.4
			l0,0c0.2-0.1,0.2,0.3,0.3,0.1c0.2-0.2,0.4-0.3,0.6-0.5h0.1l0,0c0.4-0.4,0.8-0.8,1.3-1.1c0.2-0.1,0.3-0.2,0.3-0.4s-0.1-0.2-0.2-0.2
			c0-0.1,0-0.2-0.1-0.2l0,0c0-0.3,0.4-0.2,0.4-0.4c0.3-0.1,0.4-0.4,0.7-0.5l0,0l0,0c0.3-0.2,0.7-0.3,1-0.5c0.1-0.1,0.3-0.2,0.3-0.4
			c0.3,0,0.5-0.2,0.7-0.4c-0.1-0.1-0.3,0.1-0.3-0.1c0.2,0,0.4-0.2,0.4-0.4c0-0.4,0.2-0.6,0.5-0.8l0,0l0,0c0.1-0.2,0.2-0.3,0.2-0.6
			l0,0l0,0c0.1,0,0.1,0,0.2,0.1c0.1,0.1,0,0.3,0.2,0.2c0.2,0,0.1-0.2,0.1-0.3c0,0,0,0,0-0.1c0.2-0.1,0.4,0.1,0.5,0l0,0l0,0l0,0l0,0
			c0.1-0.1,0.1-0.2,0.1-0.3c0.2-0.1,0.3-0.2,0.5-0.3c-0.1-0.2-0.5,0.1-0.4-0.3l0,0c0.1,0,0.2-0.1,0.2,0c0.1,0.2,0.2,0.2,0.4,0
			c0.1-0.1,0.2-0.1,0.2-0.2c0.1-0.1,0.2-0.2,0.2-0.3c0.4-0.2,0.5-0.7,0.9-0.9c0.1,0,0.1-0.1,0-0.2c-0.1,0-0.3,0-0.2-0.2
			c0.1-0.2,0.1-0.4,0.4-0.5c0.2-0.1,0.2,0.1,0.3,0.2c0.1,0.2,0.2,0.1,0.3-0.1c0.2-0.3,0.4-0.4,0.7-0.6l0,0c0.1-0.2,0.3-0.3,0.5-0.5
			c0-0.3-0.2-0.2-0.4-0.2l0,0c-0.1,0-0.1-0.1-0.1-0.2l0,0l0,0c-0.2-0.3-0.2-0.6-0.2-0.9v-0.1c0.1,0,0.2,0,0.2,0.1l0,0l0,0
			c0,0.1,0.1,0.2,0.1,0.3c0.2,0.7,0.5,0.8,0.9,0.4c0-0.2,0.1-0.3,0.1-0.5c0,0,0-0.1,0.1-0.1c0.1,0,0.2,0.1,0.3,0.1
			c0.2,0.2,0.3,0,0.4-0.1c0.2-0.1,0-0.2,0-0.3l0,0l0,0c0.1-0.2,0.1-0.4,0-0.6c-0.2-0.3,0-0.8,0.3-0.9c0.4-0.1,0.4-0.2,0.1-0.5
			c0-0.2,0.1-0.3,0.2-0.4c0.3,0,0.5-0.3,0.8-0.2l0.1,0.1c0,0.1,0,0.2,0.1,0.2c0.1,0,0.2-0.1,0.1-0.3c0-0.1-0.1-0.3,0-0.4l0,0
			c0.1-0.1,0.3-0.2,0.4-0.3c0.1-0.1,0.2-0.1,0.2-0.2c0,0,0-0.1,0.1-0.1l0,0c0.2-0.3-0.1-0.5,0-0.8l0.1-0.1l0,0l0,0
			c0.1-0.1,0.2-0.2,0.3-0.2c0.1-0.1,0.2-0.2,0.3-0.2c0.3-0.2,0.6-0.4,0.8-0.7l0,0c0,0,0-0.1,0.1-0.1c0.1,0,0.1-0.1,0.2-0.1l0,0l0,0
			c0.1-0.1,0.3,0,0.4-0.1l0,0c0.2-0.1,0.2-0.3,0.4-0.5l0,0l0,0c0.1-0.1,0.2-0.1,0.3-0.2c0.1,0,0.1-0.1,0.1-0.1l0,0l0,0
			c0.2-0.3,0.4-0.1,0.7-0.1l0.1-0.1c0.1,0,0.1-0.1,0.2-0.2c0.1-0.1,0.1-0.2,0.2-0.2c0.1-0.1,0.1-0.3,0.1-0.4l0,0l0,0l0,0
			c0.3,0.1,0.6,0.1,0.8-0.1c0.3-0.3,0.7-0.6,0.9-1c0.1,0,0.2-0.2,0.4-0.2c0.2,0,0.2-0.2,0.3-0.3c0.4-0.3,1.1-0.2,1.3-0.8
			c0.1-0.1,0.4-0.1,0.3-0.4c0,0,0.2-0.1,0.3-0.1c0.5,0.1,0.8-0.1,1.1-0.5l0,0c0.2,0,0.3-0.3,0.5-0.2c0.1,0.1,0.2,0,0.3-0.1
			c0.1-0.2,0.3-0.3,0.4-0.5c0,0,0,0,0.1,0h0.1c0,0,0.1,0,0.1,0.1s-0.1,0.2-0.2,0.2h-0.1c-0.2,0.1-0.4,0.2-0.4,0.4
			c-0.1,0.3-0.3,0.5-0.4,0.7c0,0,0,0,0,0.1c-0.2,0-0.4,0-0.5,0.3c-0.1,0.1-0.2,0.2-0.3,0.3l0,0c-0.1,0.2-0.1,0.3-0.4,0.3
			c-0.1,0-0.2,0-0.2,0.2l0,0c-0.1,0.1-0.2,0.1-0.3,0.2l0,0c-0.1,0.1-0.1,0.3-0.3,0.4c-0.2,0-0.2-0.2-0.2-0.4c0-0.1,0-0.2-0.1-0.2
			c-0.2,0-0.5,0.7-0.4,0.8C152.2,35.3,152,35.3,151.9,35.4 M148.5,39L148.5,39L148.5,39L148.5,39z M157.7,28.8
			c0,0.1-0.1,0.2-0.1,0.3l0,0c-0.1,0.1-0.2,0.2-0.3,0.3l0,0h-0.1l0,0c-0.3,0.2-0.6,0.6-1,0.6l0,0l0,0c-0.1,0-0.2,0.1-0.3,0
			c0-0.1,0-0.2,0.1-0.2l0.1-0.1c0,0,0-0.1,0.1-0.1c0.4-0.1,0.4-0.3,0.4-0.6c0-0.1,0.1-0.2,0.2-0.2c0.2-0.1,0.3-0.2,0.4-0.3
			c0.2-0.3,0.4-0.1,0.6,0C158.1,28.6,157.8,28.7,157.7,28.8z M165.9,17.7L165.9,17.7L165.9,17.7L165.9,17.7z M141,44
			c-0.1-0.2-0.2-0.3-0.4-0.3c0.1,0,0.1,0,0.1-0.1c0.1,0,0.2,0,0.3,0C141,43.8,141,43.9,141,44z M108.7,62L108.7,62L108.7,62
			L108.7,62L108.7,62L108.7,62z M118.5,63.5L118.5,63.5L118.5,63.5L118.5,63.5z M151.1,22.5c0,0,0.1,0.1,0.2,0.1
			c-0.1,0.1,0,0.2,0,0.3c-0.1,0-0.2,0-0.3,0.1c0,0,0,0,0,0.1l0,0c-0.1,0-0.1,0-0.2-0.1l0,0C150.9,22.7,151.1,22.7,151.1,22.5z
			 M150.4,22.9C150.4,22.9,150.4,23,150.4,22.9C150.5,23,150.5,23,150.4,22.9c0.1,0.1,0.1,0.2,0,0.2l0,0c-0.2,0-0.2-0.1-0.2-0.2
			C150.3,23,150.4,23,150.4,22.9z M149.2,23.7C149.2,23.7,149.2,23.8,149.2,23.7c-0.1,0.1-0.1,0.1-0.2,0.1
			C149.1,23.8,149.1,23.7,149.2,23.7z M124.1,33c0.1,0.2,0.1,0.5,0.3,0.7l0,0c0,0-0.1,0.2-0.1,0c-0.1-0.2-0.2-0.4-0.4-0.6
			C124,33.1,124,33,124.1,33C124,33,124,33,124.1,33L124.1,33z M107.9,62.9L107.9,62.9c0-0.2-0.2-0.3-0.3-0.4
			c-0.4-0.5-0.6-1.1-0.7-1.7c0-0.3-0.1-0.6-0.3-0.8l0,0l0,0l0,0c0-0.2,0.1-0.4,0.1-0.6c0,0,0-0.1,0.1-0.1c0-0.3,0.2-0.6,0.3-0.9l0,0
			c0.1-0.1,0.1-0.3-0.1-0.4l0,0c0-0.1,0.1-0.2,0-0.3c0.1,0,0.2-0.1,0.3-0.2c0,0.2-0.1,0.3-0.1,0.4c-0.1,0.2,0,0.4,0.2,0.4l0,0
			c-0.1,0.2,0,0.5,0,0.7l0,0c-0.1,0.2-0.2,0.4-0.1,0.6l0,0l0,0l0,0l0,0c0.3,0.2,0.1,0.5,0.2,0.7l0,0c0.1,0.4,0.6,0.8,0.1,1.3l0,0
			l0,0c0,0.4,0.3,0.7,0.5,0.7c0.3,0,0.5,0.2,0.8,0.2l0,0c0.1,0.1,0.1,0.2,0.2,0.2l0,0c0,0.4,0.2,0.4,0.5,0.4c0.1,0,0.1,0.1,0.2,0.1
			c0.1,0.1,0.1,0.1,0.2,0.2c0,0,0,0,0,0.1c0.1,0.2,0.3,0.1,0.4,0.2c-0.1,0-0.3-0.1-0.4,0c0,0,0,0-0.1,0c-0.2-0.1-0.4-0.2-0.7-0.3
			c-0.1-0.1-0.2-0.2-0.3,0c-0.1,0.1,0.1,0.1,0.2,0.1l0,0l0,0c0,0.1,0.1,0.2,0.2,0.3c0.3,0.1,0,0.1,0,0.1l0,0c-0.1,0-0.2,0-0.3,0l0,0
			v-0.1c-0.1-0.2-0.3-0.1-0.4-0.2c0,0,0,0,0-0.1l0,0C108.1,63,108,62.9,107.9,62.9z M108.5,63.5C108.5,63.6,108.5,63.6,108.5,63.5
			C108.4,63.6,108.4,63.6,108.5,63.5C108.4,63.6,108.4,63.6,108.5,63.5z M133.4,52.1c-0.1-0.1-0.1-0.2-0.2-0.3
			c0.3,0,0.4-0.2,0.5-0.4c0,0,0,0,0-0.1c0.1-0.2,0.2-0.4,0.4-0.5l0,0c0,0.1,0.1,0.2,0,0.2c-0.2,0.1-0.2,0.4-0.2,0.6l0,0l-0.1,0.1
			c0,0-0.1,0-0.1,0.1l-0.1,0.1C133.5,52,133.4,52,133.4,52.1z M140,45.2c0,0.1,0.1,0.2,0.1,0.3l0,0c-0.1,0.1-0.2,0.2-0.1,0.3
			c-0.2,0-0.3,0.2-0.5,0.2c0.1-0.1,0.2-0.2,0.3-0.3c0-0.1,0-0.2,0.1-0.4C139.8,45.4,139.9,45.3,140,45.2
			C139.9,45.2,139.9,45.2,140,45.2z M152,31.7L152,31.7C152,31.6,152,31.6,152,31.7C152,31.6,152,31.6,152,31.7
			c0.4-0.3,0.7-0.6,0.8-1c0,0,0,0,0.1-0.1l0,0l0,0c0.2,0,0.4-0.1,0.5-0.3c0.1-0.1,0.1-0.1,0.2-0.2l0,0l0,0c0.1-0.1,0.1-0.1,0.2-0.2
			l0,0l0,0c0.2,0,0.2-0.2,0.3-0.3c0.3,0,0.6-0.2,0.7-0.5l0,0l0,0c0.1-0.1,0-0.2,0.1-0.4l0,0l0.1-0.1c0.1-0.1,0-0.2,0.1-0.3l0,0l0,0
			l0,0c0.1,0,0.1,0,0.2,0l0,0l0,0c0.1,0,0.2,0,0.3,0.1c0.3-0.1,0.6-0.2,0.7-0.5l0,0l0,0c0-0.1-0.1-0.2,0-0.2c0.3,0.1,0.3,0,0.4-0.2
			l0,0c0.3-0.2,0.5-0.5,0.9-0.7c0.3-0.1,0.5-0.3,0.6-0.6c0.1-0.1,0.3,0,0.3-0.2c0.1-0.1,0.2-0.1,0.3-0.2c0.1,0,0.2,0,0.3,0
			c0.3-0.2,0.7-0.5,1-0.7l0,0c0.3-0.3,0.8-0.4,1.1-0.8l0,0c0.1,0,0.2,0,0.2-0.1c0,0,0,0,0.1,0c0.1,0,0.1-0.1,0.2-0.1
			c0,0,0,0-0.1,0.1c-0.1,0.1-0.1,0.3,0.1,0.2c0.5-0.2,0.9-0.6,1.3-0.9l0,0l0,0l0,0l0,0l0,0c0.1,0,0.2,0,0.3,0.1l0,0l0,0
			c0,0.2-0.1,0.3-0.2,0.3c-0.2,0.1-0.4,0.2-0.5,0.4l0,0l0,0c-0.2,0.1-0.4,0.3-0.5,0.4c-0.5,0.2-0.7,0.6-1.1,0.9
			c-0.1,0.1,0,0.1,0.1,0.1c0.3-0.1,0.6-0.2,0.8-0.5l0,0c-0.1,0.1-0.3,0.2-0.4,0.4l0,0c-0.1,0-0.2,0.1-0.3,0.2
			c-0.5,0.7-1.4,1-2.1,1.6c-0.2-0.3-0.2-0.3-0.4-0.3c0.2,0.3,0.2,0.7,0.1,1c-0.1,0-0.1,0-0.2,0c-0.1,0-0.2,0-0.2,0s0,0-0.1,0l0,0
			l0,0c-0.3-0.3-0.1-0.6,0-1c-0.5,0.5-0.9,1-1.6,1.2c0,0,0,0,0,0.1s-0.1,0.2-0.1,0.3l0,0c0,0,0,0-0.1,0.1l0,0c-0.1,0-0.1,0-0.2,0.1
			c-0.4,0.3-0.7,0.7-1.1,1l0,0l0,0c-0.1,0.1-0.2,0.2-0.3,0.2l0,0c-0.2,0.1-0.3,0.2-0.4,0.4c-0.2,0.1-0.4,0.2-0.5,0.4l0,0l-0.1,0.1
			l0,0l0,0c-0.2,0.1-0.3,0.3-0.3,0.4c0,0.2-0.1,0.3-0.3,0.4c-0.2,0.2-0.6,0.2-0.7,0.6c-0.1,0.4-0.5,0.6-0.7,1
			c-0.1,0.1-0.3,0.2-0.4,0.1c-0.2-0.1-0.1-0.2-0.1-0.3c0-0.1,0-0.2-0.1-0.4c0,0,0,0-0.1,0l0,0l0,0c0.1-0.3,0.2-0.6,0.4-0.8
			c0,0,0,0,0.1,0.1c0.2,0.2,0.2,0,0.3-0.1C152,32.1,152,31.9,152,31.7 M156.4,33.1c-0.1,0.1-0.1,0.3-0.3,0.2
			c0.2-0.3,0.4-0.5,0.5-0.8l0,0c0.1,0.1,0,0.2,0.1,0.3v0.1l0,0C156.5,32.8,156.4,33,156.4,33.1z M157.7,32.3
			c-0.1,0.2-0.3,0.2-0.4,0.2c-0.2,0-0.1-0.2-0.1-0.3l-0.1-0.1l0,0V32l0,0l0,0c0.3,0,0.4-0.2,0.5-0.4c0-0.1,0.1-0.2,0.1-0.2l0,0l0,0
			c0-0.1,0.1-0.1,0.1-0.2s0.1-0.1,0.1-0.1l-0.1,0.1c0.1,0.2,0.1,0.3,0.1,0.5c0,0.2,0,0.3,0.1,0.5l0,0
			C157.8,32.2,157.8,32.2,157.7,32.3z M159.6,29.4c-0.1,0.1-0.2,0.3-0.4,0.3c0.1-0.1,0.1-0.1,0.1-0.2l0,0c0.1,0,0.2-0.1,0.2-0.3l0,0
			l0,0C159.6,29.3,159.7,29.3,159.6,29.4z M166.3,25.8c0-0.1-0.1-0.1-0.1-0.2c0.2-0.1,0.4-0.2,0.6-0.3h0.1c0.1,0,0.1,0,0.2-0.1l0,0
			c0.1-0.1,0.3-0.1,0.3-0.2l0,0h0.1c0,0.1-0.1,0.2-0.2,0.2c-0.1,0-0.2,0-0.2,0.2l0,0c-0.2,0-0.3,0.1-0.3,0.3l0,0
			C166.5,25.6,166.4,25.7,166.3,25.8z">
   </path>

  </g>
</svg>