
  <svg xmlns="http://www.w3.org/2000/svg" viewBox="0 0 141.73 141.73" width="70" height="70">
  <defs>
      
      </defs>
      <title>Cross-NeoXam-2018-Grey-RGB</title>
      <g id="531947e8-1512-4989-8a34-c45ae63dcf2d" fill="rgb(38,38,38,0)" data-name="Calque 2">
          <g id="5e77dcc4-c708-4588-b0b4-8c1b14240761" data-name="BG">
          <rect class="50851cf0-a89b-48c0-9dfb-bafdb953df1c" width="141.73" height="141.73"/></g>
          <g id="2a86d78c-b49b-47aa-a246-7ca4e4724736" data-name="GFX">
              <polygon style="fill:#26A8FF" points="70.87 37.65 54.08 20.87 43.43 31.51 70.87 58.94 98.3 31.51 87.66 20.87 70.87 37.65"/>
              <polygon style="fill:#26A8FF" points="70.87 104.08 87.66 120.87 98.3 110.22 70.87 82.79 43.43 110.22 54.08 120.87 70.87 104.08"/>
              <polygon style="fill:#26A8FF" points="104.08 70.87 120.87 54.08 110.22 43.43 82.79 70.87 110.22 98.3 120.87 87.66 104.08 70.87"/>
              <polygon style="fill:white" points="37.66 70.87 20.87 87.66 31.51 98.3 58.94 70.87 31.51 43.43 20.87 54.08 37.66 70.87"/></g>
  </g></svg>


