<svg width="60" height="60" viewBox="0 0 230 204" fill="none" xmlns="http://www.w3.org/2000/svg">
<path d="M9.53831 11.0754C8.11586 30.0415 5.39556 49.0608 5.39556 68.0958C5.39556 74.9459 20.5417 72.9952 25.7065 73.1591C38.66 73.5703 51.1923 73.1369 64.0845 74.8277C65.1702 74.9701 73.6785 76.448 74.5565 75.0579C75.3393 73.8185 74.7866 68.2282 74.7866 67.5779C74.7866 60.4048 74.7866 53.2317 74.7866 46.0586C74.7866 35.4245 73.7509 24.8837 73.7509 14.2975C73.7509 10.356 70.5065 11.2107 67.4217 11.0179C56.8614 10.3579 46.5465 7.10267 36.0059 6.93266C29.1245 6.82167 21.3309 8.1017 14.7167 5.89697" stroke="#26A8FF" stroke-width="10" stroke-linecap="round"/>
<path d="M87.2149 45.2531C106.315 45.2531 125.253 48.3602 144.408 48.3602C151.984 48.3602 148.562 46.5273 148.32 39.8445C147.996 30.8613 147.285 21.9762 147.285 12.9742C147.285 2.8499 149.818 33.0772 150.449 43.1817C150.934 50.9441 152.666 58.7484 152.233 66.5422C152.008 70.5954 150.161 75.1098 150.564 79.1431C150.883 82.3271 199.426 80.315 205.628 81.9625C213.491 84.051 221.062 86.1213 222.89 75.8634C224.721 65.5893 224.7 53.842 222.66 43.642C221.727 38.9777 220.185 34.4589 219.323 29.7753C218.94 27.6993 219.614 23.1519 218.229 21.4898C216.622 19.5604 213.681 20.548 211.382 20.3391C205.165 19.7739 198.44 18.9128 192.337 17.6923C183.807 15.9863 176.455 15.2182 167.711 15.2182C164.057 15.2182 161.737 13.1468 158.677 13.1468" stroke="#26A8FF" stroke-width="10" stroke-linecap="round"/>
<path d="M44.7517 81.5022C62.6425 95.9787 73.6399 115.006 87.7903 132.769C94.5562 141.262 102.489 148.641 110.575 155.842C114.909 159.7 118.917 165.064 124.385 167.407C127.167 168.599 121.1 168.5 120.357 168.5" stroke="#26A8FF" stroke-width="10" stroke-linecap="round"/>
<path d="M136.928 132.251C145.736 148.831 136.928 173.151 136.928 191.055C136.928 196.649 146.031 194.838 150.622 195.198C165.894 196.393 181.571 197.499 196.883 197.499C199.933 197.499 206.557 198.788 209.426 197.269C211.661 196.086 210.462 189.766 210.462 187.948C210.462 176.172 210.462 164.395 210.462 152.619C210.462 149.668 212.637 135.358 208.16 135.358C197.405 135.358 186.968 132.722 176.284 131.733C165.22 130.709 154.246 130.179 143.142 130.179" stroke="#26A8FF" stroke-width="10" stroke-linecap="round"/>
</svg>
