<?xml version="1.0" encoding="UTF-8"?>
<svg xmlns="http://www.w3.org/2000/svg" version="1.1" viewBox="0 0 113.3858 56.6924">
  <!-- Generator: Adobe Illustrator 28.7.1, SVG Export Plug-In . SVG Version: 1.2.0 Build 142)  -->
  <g>
    <g id="Capa_1">
      <g>
        <g>
          <path d="M53.4545,10.0003h1.0614v5.7513c-.0919.6575-.3621,1.2117-.8109,1.6646-.5448.5437-1.2001.8161-1.9651.8161-.766,0-1.4204-.2714-1.962-.814-.5437-.5427-.814-1.197-.814-1.962v-5.456h1.0614v5.456c0,.4696.1669.8714.5019,1.2064.335.3361.7399.503,1.2127.503.4759,0,.8808-.1669,1.2148-.4999.3329-.3339.4998-.7367.4998-1.2095v-5.456Z" fill="rgb(96,165,250)"/>
          <path d="M57.6418,14.3231v3.8426h-1.0614v-5.2514h1.0614v.6126c.2212-.5991.6648-.8986,1.3316-.8986.5688,0,1.0207.2025,1.3557.6053s.5071.909.5176,1.5184v3.4137h-1.0561v-3.3729c0-.3027-.1107-.5626-.3319-.7786s-.4853-.3235-.7911-.3235c-.3026,0-.5646.1054-.7858.3162-.1231.1253-.2024.2317-.24.3162" fill="rgb(96,165,250)"/>
          <path d="M64.0745,10.9696c.1471.143.2202.3183.2202.526s-.0731.383-.2202.526c-.1461.1429-.3215.2139-.525.2139-.2014,0-.3746-.071-.5207-.2139-.1461-.143-.2192-.3184-.2192-.526s.0731-.383.2192-.526.3193-.2139.5207-.2139c.2035,0,.3789.0709.525.2139M64.0797,18.1663h-1.0561v-5.2514h1.0561v5.2514Z" fill="rgb(96,165,250)"/>
          <polygon points="68.2368 18.1661 65.7311 12.9147 66.9249 12.9147 68.5018 16.3241 70.0839 12.9147 71.2789 12.9147 68.7679 18.1661 68.2368 18.1661" fill="rgb(96,165,250)"/>
          <path d="M73.8131,17.2268c.4321.3946.9456.5928,1.5415.5928.6397,0,1.1855-.2264,1.6384-.6794.0574-.0574.1117-.1169.1628-.1784l.4853.1732c-.0887.1232-.1889.24-.3016.3527-.5479.5479-1.2095.8214-1.9849.8214-.7723,0-1.4329-.2735-1.9808-.8214-.5479-.5478-.8213-1.2095-.8213-1.9859,0-.7723.2734-1.4318.8213-1.9797s1.2085-.8224,1.9808-.8224c.6637,0,1.2429.1993,1.7396.598.0825.0678.1639.1419.2453.2244.0303.0302.0595.0605.0866.0918l-.3465.3465-3.2665,3.2664ZM76.7426,13.6494c-.3977-.3058-.861-.4592-1.388-.4592-.6366,0-1.1814.2254-1.6333.6762-.4529.4509-.6794.9957-.6794,1.6354,0,.528.1534.9904.4603,1.388l3.2404-3.2404Z" fill="rgb(96,165,250)"/>
          <path d="M79.3987,13.1544h.4592v.9131c.095-.1356.2056-.2671.3319-.3923.4049-.405.8202-.6179,1.245-.6377v.4999c-.2891.0136-.5886.1753-.8975.4842-.4362.4321-.6627.9518-.6794,1.5571v2.5871h-.4592v-5.0114Z" fill="rgb(96,165,250)"/>
          <path d="M84.4818,15.5888c-.3913-.2108-.6616-.3914-.8109-.5406-.2358-.2348-.3527-.5176-.3527-.8474,0-.3339.1169-.6188.3527-.8547.2338-.2369.5166-.3548.8464-.3548.3339,0,.6094.1085.8265.3266.2119.214.3173.4571.3173.7295v.0261l-.3987.1576c-.0334-.2588-.1148-.4519-.2421-.5813s-.2954-.1941-.503-.1941c-.2035,0-.3789.072-.526.217-.1461.1441-.2192.3204-.2192.5281,0,.2035.0731.3789.2192.526.0856.0845.2661.2139.5416.3872.4352.2379.7452.4498.9288.6334.2891.2922.4342.6408.4342,1.0457,0,.4154-.1451.7681-.4342,1.0593-.289.2912-.6397.4362-1.0509.4362-.4122,0-.7628-.145-1.0519-.4362s-.4342-.6105-.4342-.957l.455-.1179c0,.2995.1013.55.3037.7503.2025.2015.4446.3016.7274.3016.2818,0,.5239-.1001.7264-.3016.2024-.2003.3037-.4456.3037-.7347,0-.2818-.1002-.5239-.3006-.7242-.1096-.1096-.3287-.2693-.6585-.4801" fill="rgb(96,165,250)"/>
          <path d="M88.3956,11.5112c.0908.0887.1357.1952.1357.3215,0,.1294-.0449.2379-.1357.3266-.0897.0887-.1972.1326-.3235.1326s-.2337-.0439-.3245-.1326c-.0898-.0887-.1347-.1972-.1347-.3266,0-.1263.0449-.2328.1347-.3215.0908-.0887.1982-.1325.3245-.1325s.2338.0438.3235.1325M88.3017,18.1663h-.4592v-5.0114h.4592v5.0114Z" fill="rgb(96,165,250)"/>
          <polygon points="91.1826 13.1544 91.1826 11.0213 91.6417 11.0213 91.6417 13.1544 92.6624 13.1544 92.6624 13.6136 91.6417 13.6136 91.6417 18.1658 91.1826 18.1658 91.1826 13.6136 90.1619 13.6136 90.1619 13.1544 91.1826 13.1544" fill="rgb(96,165,250)"/>
          <path d="M95.3857,17.227c.432.3944.9455.5917,1.5414.5917.6397,0,1.1855-.2254,1.6374-.6784.0584-.0573.1127-.1179.1638-.1784l.4843.1732c-.0877.1221-.1889.2401-.3006.3528-.5479.5479-1.2095.8213-1.9849.8213-.7733,0-1.4329-.2734-1.9808-.8213s-.8213-1.2096-.8213-1.986c0-.7723.2734-1.4318.8213-1.9797s1.2075-.8224,1.9808-.8224c.6627,0,1.2429.1993,1.7397.598.0814.0678.1638.1419.2452.2244.0303.0303.0595.0605.0866.0918l-.3475.3465-3.2654,3.2665ZM98.3151,13.6495c-.3987-.3058-.861-.4592-1.388-.4592-.6366,0-1.1814.2254-1.6333.6763-.4529.4508-.6793.9955-.6793,1.6353,0,.5281.1534.9904.4592,1.388l3.2414-3.2404ZM97.7891,11.0874l-1.2502.9539h-.429l.8318-.9539h.8474Z" fill="rgb(96,165,250)"/>
          <path d="M51.0405,26.4906c-.5782-.1941-1.0468-.4706-1.4058-.8296s-.5385-.8036-.5385-1.3348c0-.5197.1858-.9674.5584-1.3421.3725-.3736.8244-.5614,1.3556-.5614.5239,0,.9727.1857,1.3473.5562.2108.2046.3872.5291.5301.9758l-.959.3767c-.1159-.3131-.2213-.5166-.3162-.6116-.167-.1638-.3674-.2452-.6022-.2452-.239,0-.4414.0825-.6074.2473-.167.1649-.2504.3664-.2504.6043,0,.239.0834.4415.2504.6084.1868.1837.4456.3517.7754.5051.6398.2077,1.1824.5333,1.628.98.4999.4925.7504,1.0916.7504,1.796s-.2494,1.3056-.7472,1.8044c-.4989.4978-1.0989.7472-1.7992.7472-.7044,0-1.3055-.2494-1.8023-.7503-.3976-.3977-.6491-.9476-.7545-1.6479l1.0258-.3725c.0637.6021.2223,1.0289.4738,1.2804.2933.2933.645.4394,1.0572.4394.4112,0,.7639-.1461,1.0561-.4394.2922-.2922.4394-.6459.4394-1.0613,0-.4112-.1472-.7639-.4394-1.0561-.2786-.2797-.6209-.502-1.0258-.669" fill="rgb(96,165,250)"/>
          <path d="M57.6611,25.0006c.8025,0,1.4871.2838,2.0538.8526.5667.5677.8505,1.2534.8505,2.0559,0,.8036-.2838,1.4892-.8505,2.0569-.5667.5688-1.2513.8527-2.0538.8527-.7994,0-1.484-.2839-2.0517-.8527-.5688-.5677-.8526-1.2533-.8526-2.0569,0-.8025.2838-1.4882.8526-2.0559.5677-.5688,1.2523-.8526,2.0517-.8526M56.3723,26.6234c-.3559.3569-.5333.7858-.5333,1.2857,0,.5041.1774.933.5333,1.2868.3558.3537.7847.5301,1.2888.5301.503,0,.933-.1764,1.2888-.5301.3549-.3538.5333-.7827.5333-1.2868,0-.4999-.1784-.9288-.5333-1.2857-.3558-.3569-.7858-.5364-1.2888-.5364-.5041,0-.933.1795-1.2888.5364" fill="rgb(96,165,250)"/>
          <path d="M63.3375,26.1386c.3944-.5343.8797-.815,1.4547-.8422v1.0979c-.385.0198-.6908.144-.9194.3715-.3433.3413-.5218.7451-.5353,1.2148v2.6998h-1.0562v-5.2515h1.0562v.7097Z" fill="rgb(96,165,250)"/>
          <path d="M67.3655,30.0277v.6533h-1.0562v-8.1662h1.0562v3.2769c.5103-.528,1.1041-.791,1.7814-.791.8025,0,1.4871.2838,2.0538.8515.5667.5688.8495,1.2545.8495,2.057,0,.8036-.2828,1.4892-.8495,2.0569-.5667.5688-1.2513.8527-2.0538.8527-.6773,0-1.2711-.2641-1.7814-.7911M67.3655,27.5011v.8214c.0647.3204.2274.6115.4904.8735.357.3537.7869.5301,1.291.5301.503,0,.933-.1764,1.2888-.5301.3549-.3538.5333-.7827.5333-1.2868,0-.4999-.1784-.9288-.5333-1.2857-.3558-.3569-.7858-.5364-1.2888-.5364-.5041,0-.934.1795-1.291.5364-.263.2619-.4257.5541-.4904.8776" fill="rgb(96,165,250)"/>
          <path d="M76.5433,25.0006c.8026,0,1.4871.2838,2.0538.8526.5667.5677.8495,1.2534.8495,2.0559,0,.8036-.2828,1.4892-.8495,2.0569-.5667.5688-1.2512.8527-2.0538.8527-.7994,0-1.484-.2839-2.0517-.8527-.5688-.5677-.8526-1.2533-.8526-2.0569,0-.8025.2838-1.4882.8526-2.0559.5677-.5688,1.2523-.8526,2.0517-.8526M75.2545,26.6234c-.3559.3569-.5333.7858-.5333,1.2857,0,.5041.1774.933.5333,1.2868.3558.3537.7848.5301,1.2888.5301.503,0,.933-.1764,1.2889-.5301.3548-.3538.5332-.7827.5332-1.2868,0-.4999-.1784-.9288-.5332-1.2857-.3559-.3569-.7859-.5364-1.2889-.5364-.504,0-.933.1795-1.2888.5364" fill="rgb(96,165,250)"/>
          <path d="M82.2247,26.8377v3.8425h-1.0614v-5.2513h1.0614v.6126c.2212-.5991.6648-.8986,1.3316-.8986.5688,0,1.0207.2024,1.3557.6053.335.4028.5072.909.5176,1.5184v3.4136h-1.0561v-3.3729c0-.3026-.1107-.5625-.3319-.7785s-.4853-.3235-.7911-.3235c-.3026,0-.5645.1054-.7858.3162-.1231.1252-.2024.2317-.24.3162" fill="rgb(96,165,250)"/>
          <path d="M88.529,26.8377v3.8425h-1.0613v-5.2513h1.0613v.6126c.2212-.5991.6648-.8986,1.3316-.8986.5688,0,1.0207.2024,1.3557.6053.335.4028.5072.909.5176,1.5184v3.4136h-1.0561v-3.3729c0-.3026-.1106-.5625-.3319-.7785-.2212-.216-.4853-.3235-.791-.3235-.3027,0-.5646.1054-.7859.3162-.1231.1252-.2024.2317-.24.3162" fill="rgb(96,165,250)"/>
          <path d="M95.4049,29.4918c.1763.1566.4988.2348.9643.2348.504,0,.934-.1774,1.2919-.5312.0439-.0469.1336-.1534.2703-.3162l1.0562.3778c-.2588.3569-.4456.5938-.5615.7097-.5677.5677-1.2533.8515-2.0569.8515-.7994,0-1.483-.2838-2.0518-.8515-.5677-.5688-.8515-1.2545-.8515-2.057,0-.8036.2838-1.4882.8515-2.0569.5688-.5677,1.2524-.8527,2.0518-.8527.6877,0,1.2899.2077,1.8065.6231.0855.0709.169.1481.2504.2296.0345.0344.1305.1408.2912.3214l-.5312.5364-2.7812,2.7812ZM97.1707,26.2253c-.119-.0918-.3862-.1377-.8015-.1377-.4999,0-.9278.1774-1.2837.5333-.3548.3558-.5332.7847-.5332,1.2888,0,.4112.0459.6783.1377.8015l2.4807-2.4859Z" fill="rgb(96,165,250)"/>
          <path d="M50.0198,40.6116v2.6132h-1.0561v-8.1652h2.3168c.6564.0888,1.2116.3591,1.6635.8109.5416.5448.8119,1.1981.8119,1.9599,0,.7691-.2703,1.4256-.8119,1.9672-.5406.5427-1.1939.814-1.9599.814h-.9643ZM50.0198,36.121v3.4293h.9643c.4696,0,.8725-.167,1.2075-.502s.503-.741.503-1.2179c0-.4727-.168-.8756-.503-1.2095-.335-.3329-.7379-.4999-1.2075-.4999h-.9643Z" fill="rgb(96,165,250)"/>
          <path d="M58.8995,38.3413v-.3674h1.0614v5.2567h-1.0614v-.6586c-.5103.5271-1.102.7911-1.7762.7911-.8025,0-1.4871-.2839-2.0538-.8495-.5667-.5667-.8495-1.2513-.8495-2.0549,0-.8025.2828-1.4871.8495-2.0538s1.2513-.8495,2.0538-.8495c.6742,0,1.2659.262,1.7762.7859M58.8995,40.8469v-.7753c-.0615-.3309-.2243-.6293-.4894-.8986-.358-.3538-.7869-.5312-1.2868-.5312-.503,0-.933.1774-1.2888.5312-.3549.3538-.5333.7827-.5333,1.2857,0,.5009.1784.9288.5333,1.2837.3558.3558.7858.5332,1.2888.5332.4999,0,.9288-.1763,1.2868-.5301.2651-.2692.4279-.5688.4894-.8986" fill="rgb(96,165,250)"/>
          <path d="M62.5536,38.683c.3945-.5343.8798-.815,1.4548-.8422v1.0979c-.3851.0198-.6909.144-.9184.3715-.3444.3402-.5228.7462-.5364,1.2148v2.6998h-1.0561v-5.2514h1.0561v.7096Z" fill="rgb(96,165,250)"/>
          <path d="M66.266,36.0286c.1461.143.2192.3183.2192.526s-.0731.383-.2192.526c-.1461.1429-.3214.2139-.5259.2139-.2004,0-.3737-.071-.5198-.2139-.1471-.143-.2202-.3183-.2202-.526s.0731-.383.2202-.526c.1461-.1419.3194-.2139.5198-.2139.2045,0,.3798.072.5259.2139M66.2712,43.2253h-1.0561v-5.2514h1.0561v5.2514Z" fill="rgb(96,165,250)"/>
          <path d="M68.9507,42.0974c.1263.1221.2755.1837.4487.1837.1743,0,.3225-.0616.4467-.1837s.1868-.2735.1868-.454c0-.1743-.0616-.3214-.1837-.4446-.0855-.0845-.2671-.216-.5468-.3924-.3809-.2076-.6512-.3913-.8109-.552-.2786-.2787-.4185-.6137-.4185-1.005,0-.3945.1399-.7326.4185-1.0133.2787-.2808.6157-.4206,1.0102-.4206s.7232.1325.9852.3976c.1868.1878.3068.3966.3569.6282l-1.0259.2954c-.024-.0846-.0469-.1409-.0709-.168-.0616-.0616-.143-.0919-.2453-.0919s-.1899.0365-.263.1096c-.073.0731-.1096.1607-.1096.263s.0355.1889.1075.2598c.0648.0616.2109.166.4383.3121.4227.2317.7285.4425.9195.6324.3297.334.4946.7305.4946,1.1897,0,.4696-.1638.8704-.4925,1.2012-.3288.3319-.7274.4978-1.1971.4978-.4654,0-.8641-.167-1.1938-.4999-.2275-.2275-.3778-.5124-.4488-.8526l1.0509-.2244c.0303.1565.0783.2672.143.3319" fill="rgb(96,165,250)"/>
          <polygon points="76.0039 35.0594 76.9682 35.0594 80.3369 40.888 80.3369 35.0594 81.3983 35.0594 81.3983 43.2256 80.4747 43.2256 77.06 37.3251 77.06 43.2256 76.0039 43.2256 76.0039 35.0594" fill="rgb(96,165,250)"/>
          <path d="M85.5274,37.5449c.8025,0,1.4871.2838,2.0538.8526.5667.5677.8495,1.2534.8495,2.0559,0,.8036-.2828,1.4892-.8495,2.0569-.5667.5688-1.2513.8527-2.0538.8527-.7994,0-1.484-.2839-2.0517-.8527-.5688-.5677-.8527-1.2533-.8527-2.0569,0-.8025.2839-1.4882.8527-2.0559.5677-.5688,1.2523-.8526,2.0517-.8526M84.2385,39.1677c-.3558.3569-.5332.7858-.5332,1.2857,0,.5041.1774.933.5332,1.2868.3559.3538.7848.5301,1.2889.5301.503,0,.933-.1763,1.2888-.5301.3549-.3538.5333-.7827.5333-1.2868,0-.4999-.1784-.9288-.5333-1.2857-.3558-.3569-.7858-.5354-1.2888-.5354-.5041,0-.933.1785-1.2889.5354" fill="rgb(96,165,250)"/>
          <path d="M90.7125,38.683c.3945-.5343.8798-.815,1.4548-.8422v1.0979c-.3851.0198-.6908.144-.9194.3715-.3433.3402-.5218.7462-.5354,1.2148v2.6998h-1.0561v-5.2514h1.0561v.7096Z" fill="rgb(96,165,250)"/>
          <path d="M97.7191,38.3361v-3.277h1.0613v8.1662h-1.0613v-.6533c-.5104.5271-1.1042.7911-1.7815.7911-.8025,0-1.4871-.2839-2.0538-.8526-.5666-.5678-.8495-1.2534-.8495-2.057,0-.8025.2829-1.4882.8495-2.0559.5667-.5688,1.2513-.8526,2.0538-.8526.6773,0,1.2711.264,1.7815.7911M97.7191,40.8469v-.7806c-.0616-.3298-.2265-.6293-.4947-.8985-.3548-.3569-.7827-.5364-1.2868-.5364-.503,0-.9329.1795-1.2888.5364-.3548.3569-.5333.7858-.5333,1.2857,0,.5041.1785.933.5333,1.2868.3559.3538.7858.5301,1.2888.5301.5041,0,.932-.1763,1.2868-.5301.2682-.2693.4331-.5667.4947-.8934" fill="rgb(96,165,250)"/>
          <polygon points="44.903 10.0744 19.774 10.0744 19.774 10.088 41.1439 13.5068 41.1439 35.4423 44.903 35.4423 44.903 10.0744" fill="rgb(96,165,250)"/>
          <path d="M35.5188,39.0237l3.6547.5635c-.0074-8.1954-.0147-16.3898-.022-24.5852l-19.843-3.1183.3934.1566,15.8169,5.8118v21.1716Z" fill="rgb(96,165,250)"/>
        </g>
        <g>
          <polygon points="33.3857 19.1086 17.2412 13.1934 29.6538 22.1225 29.6538 41.8122 33.3857 43.1793 33.3857 19.1086" fill="rgb(96,165,250)"/>
          <path d="M14.1732,13.3166v24.2732l13.6879,9.1023v-23.2202l-13.6879-10.1553ZM21.2468,25.0112l.1461-.4633.1461.4633h.4696l-.3841.2651.1409.4477-.3725-.2755-.3726.2755.1409-.4477-.3841-.2651h.4697ZM18.9122,21.512l.1315-.4174.1315.4174h.4227l-.3455.238.1263.4028-.335-.2473-.335.2473.1263-.4028-.3454-.238h.4226ZM17.0473,18.6953l.1169-.3715.1169.3715h.3757l-.3069.2119.1128.3579-.2985-.2202-.2985.2202.1127-.3579-.3068-.2119h.3757ZM15.2513,15.8786l.0876-.2786.0877.2786h.2818l-.2296.1587.0835.2692-.2234-.1659-.2233.1659.0845-.2692-.2306-.1587h.2818ZM14.9413,36.1851l4.9029-5.6407.6856.8954-5.5885,4.7453ZM21.7873,32.641l-1.0216-1.1876.7827-.8349,1.6812,2.0403-1.4423-.0178ZM23.3131,30.8283l-.4467.3297.1681-.5374-.4603-.3173h.5636l.1753-.5573.1743.5573h.5635l-.4592.3173.1681.5374-.4467-.3297ZM24.1115,36.6787l.1972-.6272-.5364-.3705h.6564l.2046-.6502.2045.6502h.6575l-.5375.3705.1973.6272-.5218-.3851-.5218.3851ZM26.279,42.0783l-.5959-.4404-.5959.4404.2244-.7169-.6126-.4227h.7514l.2327-.7431.2338.7431h.7514l-.6137.4227.2244.7169ZM21.4691,30.32l-.7817.8349-.0146.0167-.0647-.0835-.6857-.8954-1.987-2.5965,1.6437.0971,1.198,1.5007,6.5403-5.121-5.8483,6.247Z" fill="rgb(96,165,250)"/>
        </g>
      </g>
    </g>
  </g>
</svg>