<?xml version="1.0" standalone="yes"?>
<svg xmlns="http://www.w3.org/2000/svg" width="948" height="506">
<path style="fill:#010101; opacity:0; stroke:none;" d="M0 0L0 506L629 506C596.299 463.24 542.129 437.266 493 418.95C402.628 385.258 306.946 366.324 214 341.151C171.229 329.567 121.198 319.121 85 292.241C33.8711 254.273 99.8496 201.358 100.985 155C102.177 106.348 66.4334 63.4334 34 31C23.3426 20.3426 12.3628 8.67444 0 0z"/>
<path style="fill:#27a9ff; stroke:none;" d="M1 0C11.5316 14.8269 29.1247 26.9736 41.9961 40C69.6438 67.9805 95.9239 103.944 100.715 144C103.974 171.257 89.9284 197.076 77.1397 220C66.1727 239.659 57.0756 262.292 73.3287 282C92.593 305.359 127.375 314.792 155 324C219.185 345.395 285.631 359.697 351 376.884C422.174 395.598 492.157 415.133 558 448.605C575.365 457.432 591.97 470.706 606.014 484.09C612.927 490.678 621.326 503.376 631 505.686C640.677 507.997 653.054 506 663 506L731 506L948 506L948 0L1 0z"/>
<path style="fill:#778aff; stroke:none;" d="M74 79L75 80L74 79M76 82L77 83L76 82M78 85L79 86L78 85M80 88L81 89L80 88M81 90L82 91L81 90z"/>
<path style="fill:#01ffff; stroke:none;" d="M82 92L83 93L82 92z"/>
<path style="fill:#778aff; stroke:none;" d="M84 95L85 96L84 95M85 97L86 98L85 97M86 99L87 100L86 99z"/>
<path style="fill:#0155ff; stroke:none;" d="M89 105L90 106L89 105M90 107L91 108L90 107M93 114L94 115L93 114M97 126L98 127L97 126M100 160L101 161L100 160M99 167L100 168L99 167M83 208L84 209L83 208M82 210L83 211L82 210M81 212L82 213L81 212M78 217L79 218L78 217M77 219L78 220L77 219M76 221L77 222L76 221M68 237L69 238L68 237z"/>
<path style="fill:#778aff; stroke:none;" d="M66 270L67 271L66 270M67 272L68 273L67 272M68 274L69 275L68 274M69 276L70 277L69 276M71 279L72 280L71 279z"/>
<path style="fill:#01ffff; stroke:none;" d="M75 284L76 285L75 284M76 285L77 286L76 285z"/>
<path style="fill:#0155ff; stroke:none;" d="M113 308L114 309L113 308M125 313L126 314L125 313M133 316L134 317L133 316M136 317L137 318L136 317z"/>
<path style="fill:#01ffff; stroke:none;" d="M144 320L145 321L144 320z"/>
<path style="fill:#0155ff; stroke:none;" d="M147 321L148 322L147 321M150 322L151 323L150 322M153 323L154 324L153 323z"/>
<path style="fill:#01ffff; stroke:none;" d="M156 324L157 325L156 324M159 325L160 326L159 325z"/>
<path style="fill:#0155ff; stroke:none;" d="M172 329L173 330L172 329z"/>
<path style="fill:#01ffff; stroke:none;" d="M175 330L176 331L175 330z"/>
<path style="fill:#0155ff; stroke:none;" d="M186 333L187 334L186 333M193 335L194 336L193 335M302 364L303 365L302 364M306 365L307 366L306 365M310 366L311 367L310 366M322 369L323 370L322 369z"/>
<path style="fill:#01ffff; stroke:none;" d="M345 375L346 376L345 375z"/>
<path style="fill:#0155ff; stroke:none;" d="M349 376L350 377L349 376M353 377L354 378L353 377M536 437L537 438L536 437z"/>
<path style="fill:#778aff; stroke:none;" d="M570 456L571 457L570 456M575 459L576 460L575 459M578 461L579 462L578 461M582 464L583 465L582 464M585 466L586 467L585 466M589 469L590 470L589 469M594 473L595 474L594 473z"/>
<path style="fill:#0155ff; stroke:none;" d="M595 474L596 475L595 474z"/>
<path style="fill:#778aff; stroke:none;" d="M600 478L601 479L600 478z"/>
<path style="fill:#0155ff; stroke:none;" d="M603 481L604 482L603 481z"/>
</svg>
