<svg width="100" height="100" viewBox="0 0 140 143" fill="none" xmlns="http://www.w3.org/2000/svg">
<path d="M6.69463 20.5192C7.63263 29.8992 11.5659 38.5076 11.7231 48.176C11.9673 63.1947 13.5359 79.6355 9.20889 94.131C7.21066 100.825 3.58949 115.911 7.39304 122.975C10.8607 129.415 23.7617 131.328 30.161 132.404C55.9434 136.739 81.0373 137.432 107.195 137.432C114.869 137.432 120.537 137.082 127.379 133.661C132.423 131.139 131.089 113.341 131.779 108.588C134.09 92.6659 134.196 76.3305 134.852 60.2584C135.204 51.6363 134.756 42.101 128.915 35.3254C125.621 31.5035 126.291 28.3045 122.071 24.989C119.475 22.9491 117.467 20.5801 114.528 18.9827C109.438 16.2166 103.264 16.2871 97.8363 14.2336C82.0381 8.25584 63.9725 7.05539 47.2021 6.69081C35.3154 6.43241 23.5961 5.43369 11.7231 5.43369" stroke="#26A8FF" stroke-width="10" stroke-linecap="round"/>
<path d="M55.7226 50.6902C55.5331 66.7975 51.9512 82.5143 51.9512 98.4611" stroke="#26A8FF" stroke-width="10" stroke-linecap="round"/>
<path d="M48.1799 51.9474C59.4372 51.6257 70.4152 49.4156 81.4937 51.8775C85.4267 52.7515 83.3247 61.8015 81.9128 64.4488C77.9726 71.8367 71.9347 72.0614 64.6622 72.0614C57.7447 72.0614 79.1126 70.855 85.3349 73.8773C91.9233 77.0773 102.137 87.276 100.84 95.3881C99.2087 105.581 85.7808 107.261 77.7223 107.261C65.5387 107.261 57.8771 104.413 46.9227 99.7182" stroke="#26A8FF" stroke-width="10" stroke-linecap="round"/>
</svg>
