<svg width="103" height="100" viewBox="0 0 105 132" fill="none" xmlns="http://www.w3.org/2000/svg">
<path d="M8.1955 8.22474C34.0374 8.22474 59.4171 5.37042 85.2621 5.37042" stroke="#26A8FF" stroke-width="10" stroke-linecap="round"/>
<path d="M8.1955 13.9334C8.1955 33.4901 9.70652 53.5165 5.49975 72.4469C2.823 84.4923 16.8925 87.7542 24.6871 93.8543C36.9413 103.445 46.1798 114.396 56.8775 125.093C63.9495 132.165 78.5268 107.103 85.2621 102.893C100.058 93.6456 99.5337 94.9621 99.5337 77.3627C99.5337 56.2196 99.5337 35.0765 99.5337 13.9334" stroke="#26A8FF" stroke-width="10" stroke-linecap="round"/>
<path d="M8.1955 8.22474C34.0374 8.22474 59.4171 5.37042 85.2621 5.37042" stroke="#26A8FF" stroke-width="10" stroke-linecap="round"/>
<path d="M8.1955 13.9334C8.1955 33.4901 9.70652 53.5165 5.49975 72.4469C2.823 84.4923 16.8925 87.7542 24.6871 93.8543C36.9413 103.445 46.1798 114.396 56.8775 125.093C63.9495 132.165 78.5268 107.103 85.2621 102.893C100.058 93.6456 99.5337 94.9621 99.5337 77.3627C99.5337 56.2196 99.5337 35.0765 99.5337 13.9334" stroke="#26A8FF" stroke-width="10" stroke-linecap="round"/>
<path d="M25.3214 31.0593C36.9501 31.0593 48.5788 31.0593 60.2075 31.0593C79.4382 31.0593 76.6992 75.9783 76.6992 92.11C76.6992 98.7674 55.4236 93.8543 49.5831 93.8543C33.458 93.8543 33.8844 85.3684 33.8844 71.0198" stroke="#26A8FF" stroke-width="10" stroke-linecap="round"/>
<path d="M42.4473 59.6025H70.9905" stroke="#26A8FF" stroke-width="10" stroke-linecap="round"/>
</svg>
