<svg width="35" height="35" viewBox="0 0 60 35" fill="none" xmlns="http://www.w3.org/2000/svg">
<path d="M14.8633 33.0967V34H0.678711V33.0967H1.85059C3.21777 33.0967 4.21061 32.6979 4.8291 31.9004C5.21973 31.3796 5.41504 30.1263 5.41504 28.1406V6.75391C5.41504 5.07747 5.30924 3.9707 5.09766 3.43359C4.9349 3.02669 4.60124 2.67676 4.09668 2.38379C3.38053 1.99316 2.63184 1.79785 1.85059 1.79785H0.678711V0.894531H14.8633V1.79785H13.667C12.3161 1.79785 11.3314 2.19661 10.7129 2.99414C10.306 3.51497 10.1025 4.76823 10.1025 6.75391V28.1406C10.1025 29.8171 10.2083 30.9238 10.4199 31.4609C10.5827 31.8678 10.9245 32.2178 11.4453 32.5107C12.1452 32.9014 12.8857 33.0967 13.667 33.0967H14.8633ZM39.0088 0.137695V11.5879H38.1055C37.8125 9.39062 37.2835 7.64095 36.5186 6.33887C35.7699 5.03678 34.6956 4.00326 33.2959 3.23828C31.8962 2.47331 30.4476 2.09082 28.9502 2.09082C27.2575 2.09082 25.8577 2.61165 24.751 3.65332C23.6442 4.67871 23.0908 5.85059 23.0908 7.16895C23.0908 8.17806 23.4408 9.09766 24.1406 9.92773C25.1497 11.1484 27.5505 12.776 31.3428 14.8105C34.4352 16.4707 36.543 17.7484 37.666 18.6436C38.8053 19.5225 39.6761 20.5641 40.2783 21.7686C40.8968 22.973 41.2061 24.2344 41.2061 25.5527C41.2061 28.0592 40.2295 30.224 38.2764 32.0469C36.3395 33.8535 33.8411 34.7568 30.7812 34.7568C29.821 34.7568 28.9176 34.6836 28.0713 34.5371C27.5667 34.4557 26.5169 34.1628 24.9219 33.6582C23.3431 33.1374 22.3421 32.877 21.9189 32.877C21.512 32.877 21.1865 32.999 20.9424 33.2432C20.7145 33.4873 20.5436 33.9919 20.4297 34.7568H19.5264V23.4043H20.4297C20.8529 25.7806 21.4225 27.5628 22.1387 28.751C22.8548 29.9229 23.9453 30.8994 25.4102 31.6807C26.8913 32.4619 28.5107 32.8525 30.2686 32.8525C32.3031 32.8525 33.9062 32.3154 35.0781 31.2412C36.2663 30.167 36.8604 28.8975 36.8604 27.4326C36.8604 26.6188 36.6325 25.7969 36.1768 24.9668C35.7373 24.1367 35.0456 23.3636 34.1016 22.6475C33.4668 22.1592 31.7334 21.1257 28.9014 19.5469C26.0693 17.9518 24.0511 16.6823 22.8467 15.7383C21.6585 14.7943 20.7552 13.7526 20.1367 12.6133C19.5182 11.474 19.209 10.2207 19.209 8.85352C19.209 6.47721 20.1204 4.43457 21.9434 2.72559C23.7663 1.00033 26.0856 0.137695 28.9014 0.137695C30.6592 0.137695 32.5228 0.56901 34.4922 1.43164C35.4036 1.83854 36.0465 2.04199 36.4209 2.04199C36.8441 2.04199 37.1859 1.91992 37.4463 1.67578C37.723 1.41536 37.9427 0.902669 38.1055 0.137695H39.0088ZM59.3457 33.0967V34H45.1611V33.0967H46.333C47.7002 33.0967 48.693 32.6979 49.3115 31.9004C49.7021 31.3796 49.8975 30.1263 49.8975 28.1406V6.75391C49.8975 5.07747 49.7917 3.9707 49.5801 3.43359C49.4173 3.02669 49.0837 2.67676 48.5791 2.38379C47.863 1.99316 47.1143 1.79785 46.333 1.79785H45.1611V0.894531H59.3457V1.79785H58.1494C56.7985 1.79785 55.8138 2.19661 55.1953 2.99414C54.7884 3.51497 54.585 4.76823 54.585 6.75391V28.1406C54.585 29.8171 54.6908 30.9238 54.9023 31.4609C55.0651 31.8678 55.4069 32.2178 55.9277 32.5107C56.6276 32.9014 57.3682 33.0967 58.1494 33.0967H59.3457Z" fill="#26A8FF"/>
</svg>
