<svg width="100" height="100" viewBox="0 0 150 142" fill="none" xmlns="http://www.w3.org/2000/svg">
<path d="M12.6852 24.7413C-1.21596 41.2489 7.22958 79.3642 11.0995 98.1607C12.6774 105.825 9.74664 122.399 14.9052 128.131C22.2597 136.303 57.3688 130.18 66.9173 130.51C83.9068 131.096 101.077 132.796 117.978 134.633C121.438 135.009 140.208 139.196 143.35 135.425C147.875 129.995 140.409 111.869 139.544 106.248C137.209 91.0723 139.167 75.8035 138.117 60.5788C137.073 45.4424 134.826 30.2297 132.567 15.544C129.873 -1.96411 28.8593 7.61537 15.5395 7.61537" stroke="#26A8FF" stroke-width="10" stroke-linecap="round"/>
<path d="M61.2086 73.2647C62.5966 84.3681 75.4802 89.254 75.4802 101.649C75.4802 112.726 55.6115 107.74 52.6457 101.808" stroke="#26A8FF" stroke-width="10" stroke-linecap="round"/>
<path d="M46.9371 70.4104C59.6216 70.4104 71.1565 67.5561 84.0432 67.5561" stroke="#26A8FF" stroke-width="10" stroke-linecap="round"/>
<path d="M112.586 70.4104C91.6723 70.4104 96.7007 86.1596 113.221 87.5363C120.465 88.14 121.13 103.536 115.441 106.882C110.624 109.716 103.955 111.815 98.3148 113.225" stroke="#26A8FF" stroke-width="10" stroke-linecap="round"/>
</svg>
